<?xml version="1.0" ?><svg viewBox="0 0 64 64" xmlns="http://www.w3.org/2000/svg"><defs><style>.cls-1{fill:#231f20;}</style></defs><title/><g data-name="Bitcoin-coin" id="Bitcoin-coin-4"><path class="cls-1" d="M39,14a5.006,5.006,0,0,0-5-5V7a1,1,0,0,0-2,0V9H30V7a1,1,0,0,0-2,0V9H25a1,1,0,0,0,0,2h2V25H25a1,1,0,0,0,0,2h3v2a1,1,0,0,0,2,0V27h2v2a1,1,0,0,0,2,0V27a4.985,4.985,0,0,0,2.969-9A4.982,4.982,0,0,0,39,14Zm-2,8a3,3,0,0,1-3,3H29V19h5A3,3,0,0,1,37,22Zm-3-5H29V11h5a3,3,0,0,1,0,6Z"/><path class="cls-1" d="M47,52H45.816a2.908,2.908,0,0,0-.6-3,2.908,2.908,0,0,0,.6-3H47a2.993,2.993,0,0,0,.78-5.884A2.95,2.95,0,0,0,47.22,37,2.987,2.987,0,0,0,45,32H39.729a16,16,0,1,0-15.458,0H19a2.987,2.987,0,0,0-2.22,5,2.973,2.973,0,0,0,1.44,4.884A2.877,2.877,0,0,0,18.184,44H17a2.987,2.987,0,0,0-2.22,5A2.987,2.987,0,0,0,17,54h1.184a2.877,2.877,0,0,0,.036,2.116A2.993,2.993,0,0,0,19,62H45a2.99,2.99,0,0,0,2.78-4.116A2.993,2.993,0,0,0,47,52ZM18,18A14,14,0,1,1,32,32,14.015,14.015,0,0,1,18,18Zm1,16H45a1,1,0,0,1,0,2H19a1,1,0,0,1,0-2Zm0,4H45a1,1,0,0,1,0,2H19a1,1,0,0,1,0-2Zm1,5a1,1,0,0,1,1-1H47a1,1,0,0,1,0,2H21A1,1,0,0,1,20,43Zm-3,3H43a1,1,0,0,1,0,2H17a1,1,0,0,1,0-2Zm-1,5a1,1,0,0,1,1-1H43a1,1,0,0,1,0,2H17A1,1,0,0,1,16,51Zm29,9H19a1,1,0,0,1,0-2H45a1,1,0,0,1,0,2Zm2-4H21a1,1,0,0,1,0-2H47a1,1,0,0,1,0,2Z"/></g></svg>