<?xml version="1.0" ?><!DOCTYPE svg  PUBLIC '-//W3C//DTD SVG 1.1//EN'  'http://www.w3.org/Graphics/SVG/1.1/DTD/svg11.dtd'><svg enable-background="new 0 0 128 128" height="128px" id="Layer_1" version="1.1" viewBox="0 0 128 128" width="128px" xml:space="preserve" xmlns="http://www.w3.org/2000/svg" xmlns:xlink="http://www.w3.org/1999/xlink"><g id="portfolio"><path d="M85,81H45c-1.104,0-2-0.896-2-2s0.896-2,2-2h40c1.104,0,2,0.896,2,2S86.104,81,85,81z" fill="#454545"/><path d="M85,91H45c-1.104,0-2-0.896-2-2s0.896-2,2-2h40c1.104,0,2,0.896,2,2S86.104,91,85,91z" fill="#454545"/><path d="M85,101H45c-1.104,0-2-0.896-2-2s0.896-2,2-2h40c1.104,0,2,0.896,2,2S86.104,101,85,101z" fill="#454545"/><path d="M96,11H43.198L43,11.198V11L25,29h0.198L25,29.198V110c0,4.4,3.6,8,8,8h63c4.4,0,8-3.6,8-8V19   C104,14.6,100.4,11,96,11z M100,110c0,2.206-1.794,4-4,4H33c-2.206,0-4-1.794-4-4V29h6.198c4.4,0,7.802-3.402,7.802-7.802V15h53   c2.206,0,4,1.794,4,4V110z" fill="#454545"/><path d="M81.696,59.847C79.32,59.213,71,57.116,71,57.116v-3.301c1-1.425,2.937-5.53,2.937-5.53   s0.281,0.402,0.914,0.164c0.633-0.238,1.882-2.214,1.961-4.668c0.079-2.454-1.592-2.136-1.592-2.136s0.233-4.433,0.391-6.096   c0.158-1.663-1.797-5.002-4.068-5.201c-4.582-5.106-17.55-2.88-17.55,5.202c0,1.67,0.395,6.096,0.395,6.096   s-1.663-0.317-1.584,2.138c0.079,2.454,1.346,4.434,1.979,4.671c0.633,0.238,0.579-0.158,0.579-0.158S57,52.413,58,53.838v3.325   c0,0-8.021,2.05-10.396,2.683c-2.375,0.633-2.764,3.746-2.764,7.56c0,0,5.784,3.051,19.706,3.051s20.032-3.051,20.032-3.051   C84.577,63.593,84.071,60.48,81.696,59.847z" fill="#454545"/></g></svg>