<?xml version="1.0" ?><!DOCTYPE svg  PUBLIC '-//W3C//DTD SVG 1.1//EN'  'http://www.w3.org/Graphics/SVG/1.1/DTD/svg11.dtd'><svg enable-background="new 0 0 100 100" height="100px" id="Layer_1" version="1.1" viewBox="0 0 100 100" width="100px" xml:space="preserve" xmlns="http://www.w3.org/2000/svg" xmlns:xlink="http://www.w3.org/1999/xlink"><path d="M77.547,11.125c-1.109-2.124-3.902-3.415-6.238-2.884L17.847,20.383h64.535L77.547,11.125z" fill="#152023"/><path d="M93.738,48.138H70.19c-0.702,0-1.265,0.566-1.265,1.264v17.662c0,0.696,0.563,1.264,1.265,1.264h23.548  c0.703,0,1.262-0.567,1.262-1.264V49.401C95,48.704,94.441,48.138,93.738,48.138z M79.019,62.858c-2.554,0-4.626-2.072-4.626-4.627  c0-2.553,2.072-4.625,4.626-4.625c2.555,0,4.626,2.072,4.626,4.625C83.645,60.786,81.573,62.858,79.019,62.858z" fill="#152023"/><g><g><path d="M41.589,59.587h-4.91v7.699h4.91c2.559,0,5.729-0.523,5.729-3.85    C47.318,60.112,44.046,59.587,41.589,59.587z" fill="#152023"/><path d="M46.5,51.892c0-3.049-3-3.531-5.251-3.531h-4.57v7.059h4.57C43.593,55.419,46.5,54.938,46.5,51.892z" fill="#152023"/><path d="M70.19,43.933h18.922V28.794c0-2.323-1.883-4.206-4.206-4.206h-75.7C6.883,24.588,5,26.471,5,28.794    v58.878c0,2.323,1.883,4.206,4.206,4.206h75.7c2.323,0,4.206-1.883,4.206-4.206v-15.14H70.19c-3.017,0-5.471-2.454-5.471-5.469    V49.401C64.72,46.386,67.174,43.933,70.19,43.933z M44.862,72.579v5.246c0,0.225-0.183,0.408-0.408,0.408h-3.377    c-0.225,0-0.408-0.184-0.408-0.408v-5.113c-0.035-0.002-0.068-0.002-0.103-0.004h-3.888v5.117c0,0.225-0.184,0.408-0.409,0.408    h-3.376c-0.226,0-0.409-0.184-0.409-0.408v-5.117h-6.649c-0.227,0-0.409-0.182-0.409-0.408v-4.604c0-0.227,0.183-0.41,0.409-0.41    h4.809V48.36h-4.809c-0.227,0-0.409-0.184-0.409-0.408v-3.785c0-0.227,0.183-0.408,0.409-0.408h6.649v-5.117    c0-0.225,0.184-0.408,0.409-0.408h3.376c0.226,0,0.409,0.184,0.409,0.408v5.117h3.888c0.034-0.004,0.067-0.004,0.103-0.006v-5.111    c0-0.225,0.184-0.408,0.408-0.408h3.377c0.226,0,0.408,0.184,0.408,0.408v5.254c10.85,1.607,7.689,12.959,3.065,13.355    C55.883,57.052,59.6,70.946,44.862,72.579z" fill="#152023"/></g></g></svg>