<?xml version="1.0" ?><svg height="32" id="svg2" version="1.1" viewBox="0 0 32 32.000001" width="32" xmlns="http://www.w3.org/2000/svg" xmlns:cc="http://creativecommons.org/ns#" xmlns:dc="http://purl.org/dc/elements/1.1/" xmlns:inkscape="http://www.inkscape.org/namespaces/inkscape" xmlns:rdf="http://www.w3.org/1999/02/22-rdf-syntax-ns#" xmlns:sodipodi="http://sodipodi.sourceforge.net/DTD/sodipodi-0.dtd" xmlns:svg="http://www.w3.org/2000/svg"><defs id="defs4"/><g id="layer1" transform="translate(0,-1020.3622)"><path d="M 0.5 6 A 0.50004997 0.50004997 0 0 0 0 6.5 L 0 9.5 L 0 13.5 L 0 22.5 A 0.50004997 0.50004997 0 0 0 0.5 23 L 14 23 L 18.160156 23 C 19.483243 25.098079 21.810412 26.5 24.478516 26.5 C 28.620623 26.5 32 23.1356 32 19 A 0.50004994 0.50004994 0 0 0 31.960938 18.804688 A 0.50004994 0.50004994 0 0 0 31.958984 18.804688 C 31.882224 16.030247 30.302507 13.619039 28 12.382812 L 28 11.246094 A 0.50004997 0.50004997 0 0 0 28 11.212891 L 28 6.5 A 0.50004997 0.50004997 0 0 0 27.5 6 L 0.5 6 z M 1 7 L 27 7 L 27 9 L 1 9 L 1 7 z M 1 10 L 27 10 L 27 11.212891 L 27 11.947266 C 26.211691 11.663353 25.365232 11.501953 24.478516 11.501953 L 24.478516 11.5 C 22.794595 11.5 21.249305 12.061912 20.001953 13 A 0.50004997 0.50004997 0 0 0 19.984375 13 L 14 13 L 1 13 L 1 10 z M 24.478516 12.5 C 28.080571 12.5 31 15.4094 31 19 C 31 22.5924 28.080588 25.5 24.478516 25.5 C 20.875288 25.5 18 22.596 18 19 C 18 15.4057 20.875305 12.5 24.478516 12.5 z M 1 14 L 14 14 L 18.914062 14 C 17.726813 15.329094 17 17.08022 17 19 C 17 19.340224 17.030404 19.671589 17.074219 20 L 15 20 L 15 21 L 17.277344 21 C 17.372086 21.343709 17.4865 21.67784 17.626953 22 L 14 22 L 1 22 L 1 14 z M 24 14.5 L 24 15.5 L 22.5 15.5 A 0.50005 0.50005 0 0 0 22 16 L 22 19 L 22 22 A 0.50005 0.50005 0 0 0 22.5 22.5 L 24 22.5 L 24 23.5 L 25 23.5 L 25 22.5 L 25.490234 22.5 L 25.916016 22.5 L 26.34375 22.5 C 27.367729 22.5 28.125 21.5602 28.125 20.5 C 28.125 19.685111 27.675903 18.945089 27.003906 18.644531 C 27.186198 18.311765 27.289062 17.921531 27.289062 17.5 C 27.289062 16.9886 27.144894 16.517838 26.880859 16.148438 C 26.616825 15.778937 26.201494 15.5 25.716797 15.5 L 25.359375 15.5 L 25.001953 15.5 L 25 15.5 L 25 14.5 L 24 14.5 z M 3.5 15 A 0.50004994 0.50004994 0 0 0 3 15.5 L 3 17.5 A 0.50004994 0.50004994 0 0 0 3.5 18 L 12.5 18 A 0.50004994 0.50004994 0 0 0 13 17.5 L 13 15.5 A 0.50004994 0.50004994 0 0 0 12.5 15 L 3.5 15 z M 4 16 L 12 16 L 12 17 L 4 17 L 4 16 z M 23 16.5 L 24 16.5 L 24 18.5 L 23 18.5 L 23 16.5 z M 25 16.5 L 25.001953 16.5 L 25.359375 16.5 L 25.716797 16.5 C 25.826029 16.5 25.944841 16.557969 26.068359 16.730469 C 26.191877 16.903269 26.289062 17.1804 26.289062 17.5 C 26.289062 17.8196 26.191882 18.098684 26.068359 18.271484 C 25.944841 18.444284 25.826029 18.5 25.716797 18.5 L 25.490234 18.5 L 25.001953 18.5 L 25 18.5 L 25 16.5 z M 23 19.5 L 24 19.5 L 24 21.5 L 23 21.5 L 23 19.5 z M 25 19.5 L 25.001953 19.5 L 25.490234 19.5 L 25.716797 19.5 L 25.916016 19.5 L 26.34375 19.5 C 26.739391 19.5 27.125 19.8982 27.125 20.5 C 27.125 21.1018 26.739391 21.5 26.34375 21.5 L 25.916016 21.5 L 25.490234 21.5 L 25 21.5 L 25 19.5 z M 3 20 L 3 21 L 6 21 L 6 20 L 3 20 z M 7 20 L 7 21 L 10 21 L 10 20 L 7 20 z M 11 20 L 11 21 L 14 21 L 14 20 L 11 20 z " id="path5678-62-4-7-58" style="color:#000000;font-style:normal;font-variant:normal;font-weight:normal;font-stretch:normal;font-size:medium;line-height:normal;font-family:sans-serif;text-indent:0;text-align:start;text-decoration:none;text-decoration-line:none;text-decoration-style:solid;text-decoration-color:#000000;letter-spacing:normal;word-spacing:normal;text-transform:none;direction:ltr;block-progression:tb;writing-mode:lr-tb;baseline-shift:baseline;text-anchor:start;white-space:normal;clip-rule:nonzero;display:inline;overflow:visible;visibility:visible;opacity:1;isolation:auto;mix-blend-mode:normal;color-interpolation:sRGB;color-interpolation-filters:linearRGB;solid-color:#000000;solid-opacity:1;fill:#000000;fill-opacity:1;fill-rule:nonzero;stroke:none;stroke-width:0.99999988;stroke-linecap:round;stroke-linejoin:round;stroke-miterlimit:34.17825699;stroke-dasharray:none;stroke-dashoffset:0;stroke-opacity:1;color-rendering:auto;image-rendering:auto;shape-rendering:auto;text-rendering:auto;enable-background:accumulate" transform="translate(0,1020.3622)"/></g></svg>